<svg xmlns="http://www.w3.org/2000/svg" viewBox="0 0 460 108" width="230" height="54">

  <!-- Baumgruppe links -->
  <g transform="translate(48, 8)">
    <polygon points="0,0 22,40 -22,40" fill="#3d5935"/>
    <polygon points="0,12 18,46 -18,46" fill="#4a6741"/>
    <polygon points="0,24 14,54 -14,54" fill="#3d5935"/>
    <rect x="-4" y="54" width="8" height="12" fill="#7a5c3a"/>
    <g transform="translate(28, 10)">
      <polygon points="0,0 15,27 -15,27" fill="#4a6741"/>
      <polygon points="0,10 12,32 -12,32" fill="#3d5935"/>
      <polygon points="0,18 9,38 -9,38" fill="#4a6741"/>
      <rect x="-3" y="38" width="6" height="9" fill="#7a5c3a"/>
    </g>
    <g transform="translate(-27, 16)">
      <polygon points="0,0 12,22 -12,22" fill="#4a6741"/>
      <polygon points="0,8 10,27 -10,27" fill="#3d5935"/>
      <rect x="-3" y="27" width="6" height="8" fill="#7a5c3a"/>
    </g>
  </g>

  <!-- Trennlinie -->
  <line x1="110" y1="12" x2="110" y2="88" stroke="#c8a96e" stroke-width="0.8" opacity="0.5"/>

  <!-- Tannen -->
  <text x="122" y="62"
    font-family="Georgia, serif"
    font-size="42" font-weight="700"
    fill="#2c1a0e" letter-spacing="-0.5">Tannen</text>

  <!-- kaffee -->
  <text x="284" y="62"
    font-family="Georgia, serif"
    font-size="42" font-weight="400"
    font-style="italic"
    fill="#c17f3a" letter-spacing="-0.5">kaffee</text>

  <!-- Linie + Subtext -->
  <line x1="122" y1="72" x2="448" y2="72" stroke="#c8a96e" stroke-width="0.6" opacity="0.5"/>
  <text x="285" y="88"
    font-family="sans-serif" font-size="7"
    font-weight="400" fill="#4a6741"
    letter-spacing="3" text-anchor="middle">FREIBURG · SEIT 2010</text>

</svg>
